<svg width="1296" height="552" viewBox="0 0 1296 552" fill="none" xmlns="http://www.w3.org/2000/svg">
<path d="M224.22 219H141.627V213.04C144.466 213.04 146.831 213.04 148.723 213.04C150.615 212.851 152.129 212.661 153.264 212.472C154.589 212.094 155.724 211.81 156.67 211.621C157.616 211.242 158.562 210.769 159.508 210.202C161.022 209.255 162.157 208.12 162.914 206.796C163.86 205.282 164.333 203.768 164.333 202.254C164.333 196.956 162.252 189.577 158.089 180.116L144.466 149.18H59.8865L44.8439 186.928C44.0871 189.009 43.4248 191.185 42.8572 193.456C42.4788 195.537 42.2895 197.619 42.2895 199.7C42.2895 204.052 43.9925 207.363 47.3983 209.634C50.8042 211.904 56.4807 213.04 64.4277 213.04V219H0V213.04C3.97351 212.851 7.37938 212.188 10.2176 211.053C13.0558 209.918 15.8941 207.552 18.7323 203.957C21.5705 200.173 24.5979 194.875 27.8146 188.063C31.2205 181.062 35.4778 171.602 40.5866 159.681L107.853 0.740555H114.097L194.986 184.658C197.635 190.712 199.906 195.537 201.798 199.132C203.879 202.727 205.96 205.566 208.042 207.647C210.123 209.539 212.394 210.864 214.854 211.621C217.503 212.377 220.625 212.851 224.22 213.04V219ZM140.208 136.124L102.744 46.7198L65.2792 136.124H140.208Z" fill="#856D56"/>
<path d="M463.936 162.803L448.042 219H274.059V213.04C279.925 212.661 284.655 211.999 288.25 211.053C292.034 210.107 294.873 208.593 296.765 206.512C298.846 204.43 300.265 201.592 301.022 197.997C301.779 194.402 302.157 189.766 302.157 184.09V39.9081C302.157 34.2316 301.779 29.5958 301.022 26.0008C300.454 22.4057 299.13 19.5674 297.049 17.4861C294.967 15.4047 292.034 13.891 288.25 12.9449C284.655 11.9989 279.925 11.3366 274.059 10.9582V4.43025H365.166V10.9582C358.733 11.3366 353.529 11.9989 349.556 12.9449C345.582 13.7018 342.555 15.2155 340.473 17.4861C338.392 19.5674 336.973 22.4057 336.216 26.0008C335.459 29.5958 335.081 34.2316 335.081 39.9081V193.172C335.081 196.01 335.365 198.376 335.932 200.268C336.689 201.971 338.108 203.295 340.19 204.241C342.271 205.187 345.109 205.85 348.704 206.228C352.299 206.417 357.124 206.512 363.179 206.512H384.75C398.562 206.512 410.01 204.903 419.092 201.687C428.364 198.47 435.932 193.551 441.798 186.928C444.069 184.279 446.245 180.968 448.326 176.994C450.596 173.021 453.056 168.29 455.705 162.803H463.936Z" fill="#856D56"/>
<path d="M630.142 0.172913C645.469 0.172913 660.038 3.38957 673.851 9.82288C687.853 16.2562 699.679 25.1493 709.329 36.5022C717.276 46.1521 723.425 57.4104 727.777 70.2771C732.129 83.1437 734.305 96.9564 734.305 111.715C734.305 128.177 731.656 143.314 726.358 157.127C721.249 170.75 713.965 182.482 704.504 192.321C695.232 202.16 684.069 209.823 671.013 215.31C658.146 220.798 643.955 223.541 628.44 223.541C612.735 223.541 598.354 220.798 585.299 215.31C572.243 209.823 561.079 202.16 551.807 192.321C542.536 182.292 535.346 170.372 530.237 156.559C525.128 142.746 522.574 127.515 522.574 110.864C522.574 94.5912 525.223 79.6432 530.521 66.0197C535.819 52.3962 543.198 40.7595 552.659 31.1096C562.12 21.2704 573.378 13.7018 586.434 8.40376C599.679 2.91653 614.248 0.172913 630.142 0.172913ZM627.304 11.5258C618.411 11.5258 609.896 13.6072 601.76 17.7699C593.624 21.7434 586.528 27.3253 580.474 34.5154C577.257 38.2997 574.324 43.0301 571.675 48.7065C569.215 54.383 567.039 60.6271 565.147 67.4388C563.255 74.0614 561.836 81.1569 560.89 88.7255C559.944 96.2941 559.471 103.863 559.471 111.431C559.471 130.92 562.025 148.234 567.134 163.371C572.243 178.508 579.338 189.861 588.421 197.43C599.773 207.079 613.208 211.904 628.723 211.904C636.86 211.904 644.523 210.391 651.713 207.363C659.092 204.336 665.526 200.079 671.013 194.591C688.61 177.373 697.408 149.18 697.408 110.012C697.408 91.2799 694.759 74.629 689.461 60.0594C684.353 45.4899 677.162 34.2316 667.891 26.2846C655.97 16.4454 642.441 11.5258 627.304 11.5258Z" fill="#856D56"/>
<path d="M955.006 102.917V39.9081C955.006 34.0424 954.627 29.4066 953.87 26.0008C953.303 22.4057 951.978 19.5674 949.897 17.4861C948.005 15.4047 945.167 13.9856 941.382 13.2287C937.598 12.2827 932.584 11.5258 926.34 10.9582V4.43025H1016.31V10.9582C1010.07 11.5258 1005.05 12.2827 1001.27 13.2287C997.484 13.9856 994.552 15.4047 992.47 17.4861C990.578 19.5674 989.348 22.4057 988.781 26.0008C988.213 29.4066 987.929 34.0424 987.929 39.9081V184.09C987.929 189.766 988.213 194.402 988.781 197.997C989.537 201.403 990.956 204.147 993.038 206.228C995.119 208.309 997.957 209.823 1001.55 210.769C1005.34 211.715 1010.26 212.472 1016.31 213.04V219H926.34V213.04C932.584 212.661 937.598 212.094 941.382 211.337C945.167 210.391 948.005 208.782 949.897 206.512C951.978 204.052 953.303 200.741 953.87 196.578C954.627 192.415 955.006 186.928 955.006 180.116V117.108H856.519V184.09C856.519 189.766 856.803 194.402 857.371 197.997C858.128 201.403 859.547 204.147 861.628 206.228C863.709 208.309 866.642 209.823 870.427 210.769C874.211 211.715 879.13 212.472 885.185 213.04V219H794.93V213.04C801.363 212.661 806.472 212.094 810.256 211.337C814.041 210.391 816.879 208.782 818.771 206.512C820.852 204.052 822.177 200.741 822.744 196.578C823.312 192.415 823.596 186.928 823.596 180.116V39.9081C823.596 34.0424 823.217 29.4066 822.461 26.0008C821.893 22.4057 820.568 19.5674 818.487 17.4861C816.595 15.4047 813.757 13.9856 809.972 13.2287C806.188 12.2827 801.174 11.5258 794.93 10.9582V4.43025H885.185V10.9582C878.941 11.5258 873.927 12.2827 870.143 13.2287C866.358 13.9856 863.426 15.4047 861.344 17.4861C859.452 19.5674 858.128 22.4057 857.371 26.0008C856.803 29.4066 856.519 34.0424 856.519 39.9081V102.917H955.006Z" fill="#856D56"/>
<path d="M1295.76 219H1213.17V213.04C1216.01 213.04 1218.37 213.04 1220.27 213.04C1222.16 212.851 1223.67 212.661 1224.81 212.472C1226.13 212.094 1227.27 211.81 1228.21 211.621C1229.16 211.242 1230.11 210.769 1231.05 210.202C1232.57 209.255 1233.7 208.12 1234.46 206.796C1235.4 205.282 1235.88 203.768 1235.88 202.254C1235.88 196.956 1233.8 189.577 1229.63 180.116L1216.01 149.18H1131.43L1116.39 186.928C1115.63 189.009 1114.97 191.185 1114.4 193.456C1114.02 195.537 1113.83 197.619 1113.83 199.7C1113.83 204.052 1115.54 207.363 1118.94 209.634C1122.35 211.904 1128.02 213.04 1135.97 213.04V219H1071.54V213.04C1075.52 212.851 1078.92 212.188 1081.76 211.053C1084.6 209.918 1087.44 207.552 1090.28 203.957C1093.11 200.173 1096.14 194.875 1099.36 188.063C1102.76 181.062 1107.02 171.602 1112.13 159.681L1179.4 0.740555H1185.64L1266.53 184.658C1269.18 190.712 1271.45 195.537 1273.34 199.132C1275.42 202.727 1277.5 205.566 1279.59 207.647C1281.67 209.539 1283.94 210.864 1286.4 211.621C1289.05 212.377 1292.17 212.851 1295.76 213.04V219ZM1211.75 136.124L1174.29 46.7198L1136.82 136.124H1211.75Z" fill="#856D56"/>
<path d="M115.917 550H99.0504L37.6898 454.746H37.0473C37.1543 456.674 37.2614 458.816 37.3685 461.172C37.5827 463.528 37.7433 466.098 37.8504 468.882C37.9575 471.559 38.0646 474.343 38.1717 477.235C38.2787 480.126 38.3323 483.017 38.3323 485.909V550H25V435.31H41.7055L102.906 530.243H103.548C103.441 528.957 103.334 527.191 103.227 524.942C103.12 522.586 103.013 520.016 102.906 517.231C102.798 514.34 102.691 511.395 102.584 508.397C102.477 505.398 102.424 502.614 102.424 500.044V435.31H115.917V550Z" fill="#856D56"/>
<path d="M201.816 462.457C212.31 462.457 220.074 464.759 225.107 469.364C230.14 473.968 232.657 481.304 232.657 491.37V550H222.377L219.646 537.792H219.003C216.54 540.898 213.97 543.521 211.293 545.663C208.723 547.698 205.725 549.197 202.298 550.161C198.978 551.124 194.909 551.606 190.09 551.606C184.95 551.606 180.292 550.696 176.115 548.876C172.046 547.055 168.833 544.271 166.477 540.523C164.121 536.668 162.944 531.849 162.944 526.066C162.944 517.499 166.317 510.913 173.063 506.309C179.81 501.597 190.197 499.027 204.225 498.598L218.843 498.117V492.976C218.843 485.802 217.29 480.822 214.184 478.038C211.079 475.254 206.688 473.861 201.013 473.861C196.515 473.861 192.232 474.557 188.162 475.95C184.093 477.235 180.292 478.734 176.758 480.447L172.421 469.846C176.169 467.811 180.613 466.098 185.753 464.705C190.893 463.206 196.247 462.457 201.816 462.457ZM205.992 508.397C195.284 508.825 187.841 510.539 183.665 513.537C179.596 516.535 177.561 520.765 177.561 526.227C177.561 531.046 179.007 534.58 181.898 536.828C184.896 539.077 188.698 540.202 193.303 540.202C200.584 540.202 206.635 538.22 211.454 534.258C216.273 530.189 218.682 523.978 218.682 515.625V507.915L205.992 508.397Z" fill="#856D56"/>
<path d="M312.096 540.041C314.238 540.041 316.433 539.88 318.682 539.559C320.931 539.131 322.751 538.702 324.143 538.274V549.036C322.644 549.786 320.502 550.375 317.718 550.803C314.934 551.339 312.257 551.606 309.687 551.606C305.189 551.606 301.013 550.857 297.157 549.357C293.409 547.751 290.357 545.02 288.002 541.165C285.646 537.31 284.468 531.902 284.468 524.942V474.825H272.26V468.079L284.628 462.457L290.25 444.145H298.603V463.902H323.501V474.825H298.603V524.62C298.603 529.868 299.835 533.776 302.298 536.346C304.868 538.809 308.134 540.041 312.096 540.041Z" fill="#856D56"/>
<path d="M437.44 463.902V550H425.875L423.787 538.595H423.144C421.324 541.594 418.968 544.057 416.076 545.984C413.185 547.912 410.026 549.304 406.599 550.161C403.172 551.124 399.585 551.606 395.837 551.606C388.983 551.606 383.201 550.535 378.489 548.394C373.884 546.145 370.404 542.718 368.048 538.113C365.692 533.509 364.514 527.565 364.514 520.283V463.902H378.81V519.32C378.81 526.173 380.363 531.313 383.468 534.74C386.574 538.167 391.393 539.88 397.925 539.88C404.35 539.88 409.383 538.702 413.024 536.346C416.772 533.883 419.396 530.35 420.895 525.745C422.502 521.033 423.305 515.357 423.305 508.718V463.902H437.44Z" fill="#856D56"/>
<path d="M529.026 462.296C530.632 462.296 532.345 462.403 534.166 462.617C536.093 462.724 537.753 462.939 539.145 463.26L537.378 476.271C535.986 475.95 534.433 475.682 532.72 475.468C531.114 475.254 529.561 475.146 528.062 475.146C524.742 475.146 521.583 475.842 518.585 477.235C515.586 478.627 512.909 480.608 510.553 483.178C508.197 485.641 506.323 488.639 504.931 492.173C503.646 495.707 503.004 499.669 503.004 504.06V550H488.868V463.902H500.433L502.04 479.644H502.682C504.503 476.431 506.698 473.54 509.268 470.97C511.838 468.293 514.783 466.205 518.103 464.705C521.422 463.099 525.063 462.296 529.026 462.296Z" fill="#856D56"/>
<path d="M609.43 462.296C616.819 462.296 623.137 463.902 628.384 467.115C633.738 470.328 637.808 474.879 640.592 480.768C643.483 486.551 644.929 493.351 644.929 501.168V509.682H585.978C586.192 519.427 588.655 526.869 593.367 532.009C598.186 537.043 604.879 539.559 613.445 539.559C618.907 539.559 623.726 539.077 627.902 538.113C632.186 537.043 636.576 535.543 641.074 533.616V545.984C636.683 547.912 632.346 549.304 628.063 550.161C623.779 551.124 618.693 551.606 612.803 551.606C604.664 551.606 597.436 549.946 591.118 546.627C584.907 543.307 580.034 538.381 576.5 531.849C573.074 525.209 571.36 517.124 571.36 507.594C571.36 498.17 572.913 490.085 576.019 483.339C579.231 476.592 583.675 471.398 589.351 467.757C595.134 464.116 601.827 462.296 609.43 462.296ZM609.269 473.861C602.523 473.861 597.168 476.057 593.206 480.447C589.351 484.731 587.049 490.728 586.299 498.438H630.151C630.151 493.512 629.401 489.228 627.902 485.587C626.403 481.946 624.101 479.109 620.995 477.074C617.997 474.932 614.088 473.861 609.269 473.861Z" fill="#856D56"/>
<path d="M772.31 463.902V550H758.174V463.902H772.31ZM765.403 431.616C767.544 431.616 769.418 432.365 771.025 433.865C772.738 435.257 773.595 437.505 773.595 440.611C773.595 443.609 772.738 445.858 771.025 447.357C769.418 448.857 767.544 449.606 765.403 449.606C763.047 449.606 761.066 448.857 759.459 447.357C757.853 445.858 757.05 443.609 757.05 440.611C757.05 437.505 757.853 435.257 759.459 433.865C761.066 432.365 763.047 431.616 765.403 431.616Z" fill="#856D56"/>
<path d="M879.741 526.227C879.741 531.795 878.349 536.454 875.565 540.202C872.781 543.95 868.818 546.787 863.678 548.715C858.538 550.643 852.434 551.606 845.366 551.606C839.369 551.606 834.176 551.124 829.785 550.161C825.502 549.197 821.7 547.858 818.38 546.145V533.294C821.807 535.008 825.93 536.614 830.749 538.113C835.675 539.505 840.654 540.202 845.688 540.202C852.862 540.202 858.056 539.077 861.269 536.828C864.481 534.472 866.088 531.367 866.088 527.512C866.088 525.37 865.499 523.442 864.321 521.729C863.143 520.016 861.001 518.302 857.895 516.589C854.897 514.876 850.56 512.948 844.884 510.806C839.316 508.665 834.551 506.523 830.588 504.381C826.626 502.239 823.574 499.669 821.432 496.671C819.291 493.672 818.22 489.817 818.22 485.105C818.22 477.824 821.165 472.202 827.055 468.239C833.051 464.277 840.869 462.296 850.506 462.296C855.754 462.296 860.626 462.831 865.124 463.902C869.729 464.866 874.012 466.258 877.974 468.079L873.155 479.323C870.799 478.252 868.283 477.342 865.606 476.592C863.036 475.735 860.412 475.093 857.735 474.665C855.058 474.129 852.327 473.861 849.543 473.861C843.76 473.861 839.316 474.825 836.21 476.753C833.212 478.573 831.713 481.09 831.713 484.302C831.713 486.658 832.409 488.693 833.801 490.406C835.193 492.013 837.495 493.619 840.708 495.225C844.028 496.724 848.418 498.545 853.88 500.687C859.341 502.721 863.999 504.809 867.854 506.951C871.71 509.093 874.655 511.717 876.689 514.822C878.724 517.82 879.741 521.622 879.741 526.227Z" fill="#856D56"/>
<path d="M1006.01 550H991.872V427.921H1006.01V550Z" fill="#856D56"/>
<path d="M1071.51 463.902V550H1057.38V463.902H1071.51ZM1064.61 431.616C1066.75 431.616 1068.62 432.365 1070.23 433.865C1071.94 435.257 1072.8 437.505 1072.8 440.611C1072.8 443.609 1071.94 445.858 1070.23 447.357C1068.62 448.857 1066.75 449.606 1064.61 449.606C1062.25 449.606 1060.27 448.857 1058.66 447.357C1057.06 445.858 1056.25 443.609 1056.25 440.611C1056.25 437.505 1057.06 435.257 1058.66 433.865C1060.27 432.365 1062.25 431.616 1064.61 431.616Z" fill="#856D56"/>
<path d="M1162.56 474.825H1140.88V550H1126.74V474.825H1111.64V468.239L1126.74 463.42V458.441C1126.74 451.052 1127.81 445.055 1129.95 440.45C1132.2 435.846 1135.42 432.472 1139.59 430.331C1143.77 428.189 1148.8 427.118 1154.69 427.118C1158.12 427.118 1161.22 427.439 1164.01 428.082C1166.9 428.617 1169.36 429.26 1171.4 430.009L1167.7 441.093C1165.99 440.557 1164.01 440.022 1161.76 439.487C1159.51 438.951 1157.21 438.683 1154.85 438.683C1150.14 438.683 1146.61 440.29 1144.25 443.502C1142 446.608 1140.88 451.534 1140.88 458.28V463.902H1162.56V474.825Z" fill="#856D56"/>
<path d="M1235.45 462.296C1242.84 462.296 1249.15 463.902 1254.4 467.115C1259.76 470.328 1263.83 474.879 1266.61 480.768C1269.5 486.551 1270.95 493.351 1270.95 501.168V509.682H1212C1212.21 519.427 1214.67 526.869 1219.38 532.009C1224.2 537.043 1230.9 539.559 1239.46 539.559C1244.92 539.559 1249.74 539.077 1253.92 538.113C1258.2 537.043 1262.59 535.543 1267.09 533.616V545.984C1262.7 547.912 1258.36 549.304 1254.08 550.161C1249.8 551.124 1244.71 551.606 1238.82 551.606C1230.68 551.606 1223.45 549.946 1217.14 546.627C1210.92 543.307 1206.05 538.381 1202.52 531.849C1199.09 525.209 1197.38 517.124 1197.38 507.594C1197.38 498.17 1198.93 490.085 1202.04 483.339C1205.25 476.592 1209.69 471.398 1215.37 467.757C1221.15 464.116 1227.84 462.296 1235.45 462.296ZM1235.29 473.861C1228.54 473.861 1223.19 476.057 1219.22 480.447C1215.37 484.731 1213.07 490.728 1212.32 498.438H1256.17C1256.17 493.512 1255.42 489.228 1253.92 485.587C1252.42 481.946 1250.12 479.109 1247.01 477.074C1244.01 474.932 1240.11 473.861 1235.29 473.861Z" fill="#856D56"/>
</svg>
